<?xml version="1.0" encoding="UTF-8"?>
<svg version="1.1" xmlns="http://www.w3.org/2000/svg" width="319" height="319">
<path d="M0 0 C6.04285763 0.81631585 9.43545837 4.21071847 14 8 C14.58910156 8.44214844 15.17820313 8.88429688 15.78515625 9.33984375 C26.69904887 17.8284269 37.1322109 33.08819153 39 47 C40.2641448 63.32552709 36.06634395 74.08469078 26 87 C24.65523681 88.88774304 23.32123242 90.7832136 22 92.6875 C21.4225 93.51636719 20.845 94.34523438 20.25 95.19921875 C19.8375 95.79347656 19.425 96.38773437 19 97 C20.64548828 96.36771484 20.64548828 96.36771484 22.32421875 95.72265625 C23.77856765 95.16906538 25.2329991 94.61569138 26.6875 94.0625 C27.40873047 93.78470703 28.12996094 93.50691406 28.87304688 93.22070312 C29.57880859 92.95322266 30.28457031 92.68574219 31.01171875 92.41015625 C31.65584717 92.16402588 32.29997559 91.91789551 32.96362305 91.66430664 C37.14801231 90.29927569 41.06795095 89.87252006 45.45703125 89.8671875 C46.48763672 89.86589844 47.51824219 89.86460938 48.58007812 89.86328125 C49.64677734 89.86714844 50.71347656 89.87101562 51.8125 89.875 C52.86759766 89.87113281 53.92269531 89.86726563 55.00976562 89.86328125 C60.76874874 89.87045755 66.30530702 90.13446162 72 91 C72.14993408 90.42443359 72.29986816 89.84886719 72.4543457 89.25585938 C74.47938355 82.48517447 77.02089507 76.11217523 83 72 C88.80587083 70.2409075 94.99785575 70.49610788 101 70.6875 C101.80482819 70.71263672 102.60965637 70.73777344 103.43887329 70.76367188 C116.95172328 71.30114886 116.95172328 71.30114886 121 74 C119.73183148 76.64497512 118.3565308 79.06340318 116.6796875 81.46875 C116.23020752 82.11714844 115.78072754 82.76554687 115.31762695 83.43359375 C114.84156006 84.11550781 114.36549316 84.79742187 113.875 85.5 C112.88602879 86.92660528 111.89775437 88.35369383 110.91015625 89.78125 C110.42047363 90.48894531 109.93079102 91.19664063 109.42626953 91.92578125 C106.2268519 96.57868304 103.11363103 101.28940635 100 106 C101.42176343 109.23128051 103.16783467 111.35909765 105.625 113.875 C121.34536936 131.25315377 125.04922349 152.45310659 124.1953125 175.11376953 C123.74734271 181.73364312 122.15147841 187.72653023 120 194 C119.57589844 195.2478125 119.15179688 196.495625 118.71484375 197.78125 C112.43050172 215.1836984 101.40869496 230.43422416 89 244 C94.71207033 243.18123781 100.41484687 242.35688579 106.0625 241.1640625 C106.72950928 241.02331299 107.39651855 240.88256348 108.08374023 240.73754883 C109.98591009 240.32895195 111.88559857 239.90885488 113.78515625 239.48828125 C116.80198869 239.03007462 118.17525393 239.16702766 121 240 C121.36076001 242.97850621 121.71390416 245.95756784 122.0625 248.9375 C122.16626953 249.78763672 122.27003906 250.63777344 122.37695312 251.51367188 C122.47041016 252.32255859 122.56386719 253.13144531 122.66015625 253.96484375 C122.74918213 254.7137085 122.83820801 255.46257324 122.92993164 256.23413086 C122.9530542 256.81686768 122.97617676 257.39960449 123 258 C121.40617301 259.59382699 119.61724506 259.33494092 117.40771484 259.54077148 C116.42934662 259.63434433 115.45097839 259.72791718 114.44296265 259.82432556 C113.37639435 259.92225906 112.30982605 260.02019257 111.2109375 260.12109375 C108.96743857 260.33649125 106.7239493 260.55198927 104.48046875 260.76757812 C100.93232864 261.10317325 97.38400578 261.43665955 93.83544922 261.76782227 C90.41838904 262.08833573 87.002165 262.41684053 83.5859375 262.74609375 C82.53151459 262.84200302 81.47709167 262.93791229 80.39071655 263.03672791 C69.9368033 263.91643022 69.9368033 263.91643022 61 269 C62.35025269 269.10489746 62.35025269 269.10489746 63.7277832 269.21191406 C97.05624075 271.85963111 97.05624075 271.85963111 113 276 C114.09699219 276.2578125 115.19398438 276.515625 116.32421875 276.78125 C121.33560687 278.0672966 121.33560687 278.0672966 123 279 C123.9453125 280.75 123.9453125 280.75 124 283 C122.671875 285.65625 122.671875 285.65625 120.75 288.5 C120.12609375 289.4384375 119.5021875 290.376875 118.859375 291.34375 C117.281155 293.59835 115.67080027 295.81352063 114 298 C107.81444782 297.21140371 101.82705106 295.88126895 95.75976562 294.4609375 C95.00501953 294.28820312 94.25027344 294.11546875 93.47265625 293.9375 C92.80500244 293.78152344 92.13734863 293.62554687 91.44946289 293.46484375 C66.21873383 288.67671377 30.6049258 288.20502024 8.55859375 302.13671875 C4.83811295 304.28272651 2.342158 304.71220581 -2 304 C-5.66350834 302.48363596 -9.06176798 300.59259478 -12.5 298.625 C-13.46309082 298.08713867 -14.42618164 297.54927734 -15.41845703 296.99511719 C-23.55384151 292.39314674 -31.36011539 287.37885957 -39 282 C-42.65589312 283.50515594 -44.65778772 285.61088552 -47.23828125 288.5703125 C-61.47416884 304.27207367 -61.47416884 304.27207367 -67.65234375 305.3203125 C-71.21791664 305.45810046 -74.55313896 304.94005301 -78 304 C-77.38269928 299.58412478 -75.73685096 296.23254846 -73.65625 292.30859375 C-73.32709595 291.68146988 -72.99794189 291.05434601 -72.65881348 290.40821838 C-71.61183808 288.41476767 -70.55667975 286.42582148 -69.5 284.4375 C-68.44404766 282.44525067 -67.39003814 280.4520674 -66.34118652 278.45606995 C-65.39033037 276.64720605 -64.4326431 274.84193792 -63.47460938 273.03686523 C-62.3003675 270.61858797 -61.47979695 268.62157509 -61 266 C-61.60295898 265.53851563 -62.20591797 265.07703125 -62.82714844 264.6015625 C-69.40887286 259.46411158 -75.3768087 253.92707379 -81.25 248 C-82.10851562 247.14921875 -82.96703125 246.2984375 -83.8515625 245.421875 C-97 232.23298077 -97 232.23298077 -97 228 C-97.66 228 -98.32 228 -99 228 C-100.1574707 226.43041992 -100.1574707 226.43041992 -101.42578125 224.23046875 C-101.89040771 223.42947754 -102.35503418 222.62848633 -102.83374023 221.80322266 C-103.32173096 220.94003418 -103.80972168 220.0768457 -104.3125 219.1875 C-104.81015869 218.31399902 -105.30781738 217.44049805 -105.82055664 216.54052734 C-118.3170071 194.39268111 -124.65979869 169.21972238 -118.5 143.875 C-111.9812351 123.88714944 -100.48610959 107.43853876 -81.73828125 97.22265625 C-71.06077078 92.05448846 -61.05572257 89.44075989 -49.1875 89.5625 C-47.61101685 89.57494751 -47.61101685 89.57494751 -46.00268555 89.58764648 C-32.2871641 89.88477558 -21.68783319 94.08825811 -10 101 C-8.99105312 97.54138297 -8.02416527 94.09975331 -7.17578125 90.59765625 C-4.44837219 79.42885444 -0.07814078 69.37523357 4.90234375 59.04296875 C11.06541736 46.22390451 15.68467754 34.63597538 11.05078125 20.55859375 C8.84909827 15.19761846 6.07768481 9.93324683 1.80859375 5.9609375 C0 4 0 4 0 0 Z M-75 126 C-75.845625 126.5775 -76.69125 127.155 -77.5625 127.75 C-86.53277629 136.03025504 -92.50955431 148.38890541 -93.203125 160.56640625 C-93.52666757 188.14841044 -79.93466532 210.77829563 -61.23046875 230.12304688 C-53.64304923 237.79025761 -45.69986658 244.6388322 -37 251 C-36.36545898 251.47356934 -35.73091797 251.94713867 -35.07714844 252.43505859 C-30.91474238 255.53491813 -26.68964154 258.51465888 -22.37597656 261.40039062 C-20.71274103 262.52015215 -19.06194926 263.65851801 -17.42089844 264.81054688 C-7.19114237 272.43835792 -7.19114237 272.43835792 4.8125 274.61328125 C7.88424405 273.14495915 10.48789468 271.51882878 13.16015625 269.41357422 C15.19574137 267.84960953 17.30328902 266.47580179 19.46875 265.09765625 C24.0527409 262.16754031 28.53513128 259.10779221 33 256 C34.55074219 254.92878906 34.55074219 254.92878906 36.1328125 253.8359375 C42.39374139 249.40035231 48.2466391 244.5394708 54.0546875 239.53515625 C55.73397167 238.08972465 57.42146208 236.65341305 59.1328125 235.24609375 C63.60653851 231.56479903 67.27308375 227.42430702 71 223 C71.77472656 222.13632813 72.54945313 221.27265625 73.34765625 220.3828125 C87.13535097 204.65589024 97.79520657 184.13373301 97.25 162.734375 C96.02617373 149.34877512 91.9790609 139.81432238 83 130 C80.0253772 132.82984027 77.60002342 135.76065023 75.25 139.125 C74.32960937 140.42824219 74.32960937 140.42824219 73.390625 141.7578125 C71.82431067 143.84353826 71.82431067 143.84353826 72 146 C68.66101039 144.58566816 66.88456419 142.93619488 64.625 140.125 C61.66090664 136.62660655 59.02659126 134.1963225 55 132 C54.01 132 53.02 132 52 132 C52.97275532 128.02791579 54.03567167 124.71416768 56.125 121.1875 C58.16900671 118.32903494 58.16900671 118.32903494 58 116 C45.25844654 115.2707537 35.68267837 117.47479122 26 126 C23.39585286 128.35412766 23.39585286 128.35412766 21 131 C20.50242187 131.50402344 20.00484375 132.00804687 19.4921875 132.52734375 C15.20816057 137.08036772 11.87404507 142.09797588 8.5625 147.375 C8.11302002 148.08954346 7.66354004 148.80408691 7.20043945 149.5402832 C4.83377412 153.01267272 4.83377412 153.01267272 4 157 C1.41497937 156.63848998 0.28423509 156.34179921 -1.4128418 154.30102539 C-1.83734619 153.57391357 -2.26185059 152.84680176 -2.69921875 152.09765625 C-3.18156982 151.29424805 -3.6639209 150.49083984 -4.16088867 149.66308594 C-4.91656128 148.3757959 -4.91656128 148.3757959 -5.6875 147.0625 C-10.21444939 139.64009585 -14.63443605 132.9924906 -21 127 C-21.70382813 126.33742188 -22.40765625 125.67484375 -23.1328125 124.9921875 C-31.41747272 117.89529219 -40.94014632 115.22838849 -51.76171875 115.6171875 C-60.96066121 116.70463788 -68.02664079 120.04154283 -75 126 Z " fill="#EF3128" transform="translate(157,8)"/>
<path d="M0 0 C9.11791584 0 15.8751463 6.84552386 22.25 12.75 C29.86505927 20.74111158 34.76308388 30.10774827 35.05859375 41.19921875 C34.59529103 49.52372247 30.56899506 56.99649822 26.80859375 64.27734375 C22.08452872 73.4262961 18.34680297 81.91433486 16 92 C15.66769557 93.33359014 15.33484827 94.66704632 15 96 C12.640625 95.81640625 12.640625 95.81640625 10 95 C6.67299641 89.43216164 5.27463077 82.43093716 5 76 C4.9484375 75.06929688 4.896875 74.13859375 4.84375 73.1796875 C4.50791133 61.78915921 6.61931283 50.97324557 10.125 40.1875 C13.039195 31.08486001 14.47920384 22.79728524 10 14 C7.56043084 10.17028528 4.83346762 6.83346762 1.625 3.625 C1.08875 3.08875 0.5525 2.5525 0 2 C0 1.34 0 0.68 0 0 Z " fill="#EF382F" transform="translate(128,1)"/>
<path d="M0 0 C6.04285763 0.81631585 9.43545837 4.21071847 14 8 C14.58910156 8.44214844 15.17820313 8.88429688 15.78515625 9.33984375 C26.69904887 17.8284269 37.1322109 33.08819153 39 47 C40.2641448 63.32552709 36.06634395 74.08469078 26 87 C24.65523681 88.88774304 23.32123242 90.7832136 22 92.6875 C21.4225 93.51636719 20.845 94.34523438 20.25 95.19921875 C19.8375 95.79347656 19.425 96.38773437 19 97 C20.09699219 96.57847656 21.19398438 96.15695313 22.32421875 95.72265625 C23.77856765 95.16906538 25.2329991 94.61569138 26.6875 94.0625 C27.40873047 93.78470703 28.12996094 93.50691406 28.87304688 93.22070312 C29.57880859 92.95322266 30.28457031 92.68574219 31.01171875 92.41015625 C31.65584717 92.16402588 32.29997559 91.91789551 32.96362305 91.66430664 C37.14801231 90.29927569 41.06795095 89.87252006 45.45703125 89.8671875 C46.48763672 89.86589844 47.51824219 89.86460938 48.58007812 89.86328125 C49.64677734 89.86714844 50.71347656 89.87101562 51.8125 89.875 C53.39514648 89.86919922 53.39514648 89.86919922 55.00976562 89.86328125 C60.76874874 89.87045755 66.30530702 90.13446162 72 91 C72.14993408 90.42443359 72.29986816 89.84886719 72.4543457 89.25585938 C74.47938355 82.48517447 77.02089507 76.11217523 83 72 C88.80587083 70.2409075 94.99785575 70.49610788 101 70.6875 C101.80482819 70.71263672 102.60965637 70.73777344 103.43887329 70.76367188 C116.95172328 71.30114886 116.95172328 71.30114886 121 74 C119.73183148 76.64497512 118.3565308 79.06340318 116.6796875 81.46875 C116.23020752 82.11714844 115.78072754 82.76554687 115.31762695 83.43359375 C114.84156006 84.11550781 114.36549316 84.79742187 113.875 85.5 C112.88602879 86.92660528 111.89775437 88.35369383 110.91015625 89.78125 C110.42047363 90.48894531 109.93079102 91.19664063 109.42626953 91.92578125 C106.2268519 96.57868304 103.11363103 101.28940635 100 106 C101.42176343 109.23128051 103.16783467 111.35909765 105.625 113.875 C121.34536936 131.25315377 125.04922349 152.45310659 124.1953125 175.11376953 C123.74734271 181.73364312 122.15147841 187.72653023 120 194 C119.57589844 195.2478125 119.15179688 196.495625 118.71484375 197.78125 C112.43050172 215.1836984 101.40869496 230.43422416 89 244 C94.71207033 243.18123781 100.41484687 242.35688579 106.0625 241.1640625 C106.72950928 241.02331299 107.39651855 240.88256348 108.08374023 240.73754883 C109.98591009 240.32895195 111.88559857 239.90885488 113.78515625 239.48828125 C116.80198869 239.03007462 118.17525393 239.16702766 121 240 C121.36076001 242.97850621 121.71390416 245.95756784 122.0625 248.9375 C122.16626953 249.78763672 122.27003906 250.63777344 122.37695312 251.51367188 C122.51713867 252.72700195 122.51713867 252.72700195 122.66015625 253.96484375 C122.74918213 254.7137085 122.83820801 255.46257324 122.92993164 256.23413086 C122.9530542 256.81686768 122.97617676 257.39960449 123 258 C121.40617301 259.59382699 119.61724506 259.33494092 117.40771484 259.54077148 C116.42934662 259.63434433 115.45097839 259.72791718 114.44296265 259.82432556 C113.37639435 259.92225906 112.30982605 260.02019257 111.2109375 260.12109375 C108.96743857 260.33649125 106.7239493 260.55198927 104.48046875 260.76757812 C100.93232864 261.10317325 97.38400578 261.43665955 93.83544922 261.76782227 C90.41838904 262.08833573 87.002165 262.41684053 83.5859375 262.74609375 C82.53151459 262.84200302 81.47709167 262.93791229 80.39071655 263.03672791 C69.9368033 263.91643022 69.9368033 263.91643022 61 269 C61.90016846 269.06993164 62.80033691 269.13986328 63.7277832 269.21191406 C97.05624075 271.85963111 97.05624075 271.85963111 113 276 C114.09699219 276.2578125 115.19398438 276.515625 116.32421875 276.78125 C121.33560687 278.0672966 121.33560687 278.0672966 123 279 C123.9453125 280.75 123.9453125 280.75 124 283 C122.671875 285.65625 122.671875 285.65625 120.75 288.5 C120.12609375 289.4384375 119.5021875 290.376875 118.859375 291.34375 C117.281155 293.59835 115.67080027 295.81352063 114 298 C107.81444782 297.21140371 101.82705106 295.88126895 95.75976562 294.4609375 C94.62764648 294.20183594 94.62764648 294.20183594 93.47265625 293.9375 C92.80500244 293.78152344 92.13734863 293.62554687 91.44946289 293.46484375 C66.21873383 288.67671377 30.6049258 288.20502024 8.55859375 302.13671875 C4.97943286 304.25367938 2.17443216 304.59201038 -2 304 C-3.70141602 302.47143555 -3.70141602 302.47143555 -5 301 C-4.43224854 301.12149414 -3.86449707 301.24298828 -3.27954102 301.36816406 C1.89897692 302.24846345 4.76153948 302.16314542 9.25439453 299.03881836 C9.85106934 298.6135083 10.44774414 298.18819824 11.0625 297.75 C26.48652107 288.18666615 45.81620717 289.74577294 63.375 289.625 C64.56141083 289.61253738 64.56141083 289.61253738 65.77178955 289.599823 C82.10445934 289.47456531 97.53910796 291.61873546 113 297 C113.25523437 296.29488281 113.51046875 295.58976562 113.7734375 294.86328125 C115.11550522 291.7303652 116.76729867 289.04285575 118.625 286.1875 C119.57246094 284.72376953 119.57246094 284.72376953 120.5390625 283.23046875 C121.02117187 282.49441406 121.50328125 281.75835937 122 281 C121.42894531 280.89042969 120.85789062 280.78085937 120.26953125 280.66796875 C112.88797793 279.22451715 112.88797793 279.22451715 109.25 278.3046875 C91.50860835 273.82215504 73.23287608 272.54566915 55 272 C58.3203125 268.58203125 58.3203125 268.58203125 60 267 C60.84143555 266.14510986 61.68287109 265.29021973 62.54980469 264.40942383 C66.62783932 261.06179628 70.96930758 260.97854356 76.078125 260.63671875 C77.0447406 260.55500931 78.0113562 260.47329987 79.00726318 260.38911438 C82.08690665 260.13439151 85.16795212 259.91102201 88.25 259.6875 C90.30614986 259.51952872 92.36214288 259.34962562 94.41796875 259.17773438 C103.30031562 258.4587873 112.08356091 257.87920563 121 258 C120.7834375 256.66195312 120.7834375 256.66195312 120.5625 255.296875 C120.376875 254.12640625 120.19125 252.9559375 120 251.75 C119.814375 250.58984375 119.62875 249.4296875 119.4375 248.234375 C119 245 119 245 119 241 C117.93523437 241.25394531 116.87046875 241.50789062 115.7734375 241.76953125 C108.60870199 243.47194409 101.43945452 245.15488748 94.25 246.75 C93.16203125 246.99234375 92.0740625 247.2346875 90.953125 247.484375 C88.22595715 247.96054716 85.75993589 248.10221985 83 248 C86.4145998 243.28063442 90.01578484 238.79364198 93.8125 234.375 C112.81022348 211.84289944 122.67274451 185.58779271 121 156 C119.06620522 136.9692098 110.11883375 120.73388003 96 108 C97.49763995 104.80663177 99.29937762 101.97995393 101.30078125 99.078125 C101.94853516 98.13453125 102.59628906 97.1909375 103.26367188 96.21875 C103.93978516 95.2390625 104.61589844 94.259375 105.3125 93.25 C109.68104086 86.9111667 113.97823206 80.56551672 118 74 C98.87520699 71.78182382 98.87520699 71.78182382 81.31005859 76.91210938 C77.0907605 81.90050247 74.70434768 87.73568159 73 94 C72.12057739 93.89824463 72.12057739 93.89824463 71.22338867 93.79443359 C51.22572293 91.6205614 33.16805795 91.2402738 15.953125 102.86328125 C14 104 14 104 11 104 C12.15138674 102.32349482 13.30287867 100.64706182 14.45483398 98.97094727 C15.45134702 97.52023563 16.44693829 96.06889043 17.44165039 94.61694336 C19.79999193 91.17877925 22.16715582 87.74980332 24.59375 84.359375 C33.81256066 71.43236589 38.16573182 60.25134212 35.5390625 44.1796875 C31.18634733 28.25387083 19.23595843 12.75685627 4.9375 4.5 C3.968125 4.005 2.99875 3.51 2 3 C3.32 4.32 4.64 5.64 6 7 C5.67 7.66 5.34 8.32 5 9 C2.5 6.75 2.5 6.75 0 4 C0 2.68 0 1.36 0 0 Z " fill="#F8E0DF" transform="translate(157,8)"/>
<path d="M0 0 C-3 1 -3 1 -5.875 0.0625 C-15.66233267 -2.92521208 -25.88130809 -1.24580927 -35 3 C-47.42505637 10.53346441 -55.97950537 22.37394518 -59.62109375 36.390625 C-62.82727915 58.47033479 -54.39951401 79.54572557 -41.34692383 97.06152344 C-30.98240708 110.53520734 -18.67392921 121.96979842 -5 132 C-4.36400879 132.47501953 -3.72801758 132.95003906 -3.07275391 133.43945312 C1.0880863 136.53788601 5.31211665 139.51583507 9.62402344 142.40039062 C11.28725897 143.52015215 12.93805074 144.65851801 14.57910156 145.81054688 C24.80885763 153.43835792 24.80885763 153.43835792 36.8125 155.61328125 C39.88424405 154.14495915 42.48789468 152.51882878 45.16015625 150.41357422 C47.19574137 148.84960953 49.30328902 147.47580179 51.46875 146.09765625 C56.0527409 143.16754031 60.53513128 140.10779221 65 137 C66.03382813 136.28585937 67.06765625 135.57171875 68.1328125 134.8359375 C74.9060692 130.03739121 81.20040254 124.72239075 87.47607422 119.30102539 C89.02829228 117.97584596 90.60400932 116.68299004 92.18359375 115.390625 C95.89940519 112.23656591 98.8629066 108.71367381 102 105 C102.77601563 104.13503906 103.55203125 103.27007812 104.3515625 102.37890625 C118.1552761 86.63070668 128.73825359 66.16394582 128.2578125 44.75 C127.64228272 38.18434898 126.80548784 30.95558782 123.33203125 25.26953125 C122.67267578 24.14611328 122.67267578 24.14611328 122 23 C122.33 22.01 122.66 21.02 123 20 C123.79955001 21.51670364 124.58921388 23.03861998 125.375 24.5625 C126.03628906 25.83287109 126.03628906 25.83287109 126.7109375 27.12890625 C129.55384172 33.46082929 130.35932097 39.16134267 130.3125 46 C130.30903564 46.82580566 130.30557129 47.65161133 130.30200195 48.50244141 C130.13536823 58.06776937 129.25810295 67.80242744 124 76 C123.113332 77.71917302 122.22717313 79.43863102 121.3503418 81.1628418 C114.74619594 94.02563501 105.91901147 104.59097749 96 115 C95.34515625 115.70769531 94.6903125 116.41539062 94.015625 117.14453125 C87.96255933 123.49507664 81.00558762 128.75762826 74 134 C73.3591748 134.47985352 72.71834961 134.95970703 72.05810547 135.45410156 C63.41063441 141.86837555 54.45705508 147.73269667 45.25 153.3125 C44.30898437 153.89435059 43.36796875 154.47620117 42.3984375 155.07568359 C41.50898438 155.60371582 40.61953125 156.13174805 39.703125 156.67578125 C38.91583008 157.14927002 38.12853516 157.62275879 37.31738281 158.1105957 C34.37029201 159.24167996 32.98344961 158.96989592 30 158 C27.55908203 156.77587891 27.55908203 156.77587891 25.0078125 155.2265625 C24.06252686 154.65437988 23.11724121 154.08219727 22.14331055 153.49267578 C21.14726807 152.87634277 20.15122559 152.26000977 19.125 151.625 C18.09866455 150.9944873 17.0723291 150.36397461 16.01489258 149.71435547 C7.68225834 144.53922033 -0.25682684 139.01392853 -8 133 C-9.34191406 131.97519531 -9.34191406 131.97519531 -10.7109375 130.9296875 C-17.4799624 125.65539996 -23.75341951 119.87338507 -30 114 C-30.64839844 113.40574219 -31.29679687 112.81148438 -31.96484375 112.19921875 C-48.90964983 96.13155557 -62.48637805 72.22684661 -63.40478516 48.69067383 C-63.63195921 33.47848861 -58.64501894 20.84218687 -48.1875 9.6875 C-34.98545473 -2.74994805 -16.97490961 -7.27496126 0 0 Z " fill="#FAE6E6" transform="translate(125,126)"/>
<path d="M0 0 C6.04285763 0.81631585 9.43545837 4.21071847 14 8 C14.88365234 8.66322266 14.88365234 8.66322266 15.78515625 9.33984375 C26.69904887 17.8284269 37.1322109 33.08819153 39 47 C40.2641448 63.32552709 36.06634395 74.08469078 26 87 C24.65523681 88.88774304 23.32123242 90.7832136 22 92.6875 C21.4225 93.51636719 20.845 94.34523438 20.25 95.19921875 C19.8375 95.79347656 19.425 96.38773437 19 97 C20.09699219 96.57847656 21.19398438 96.15695313 22.32421875 95.72265625 C23.77856765 95.16906538 25.2329991 94.61569138 26.6875 94.0625 C27.40873047 93.78470703 28.12996094 93.50691406 28.87304688 93.22070312 C29.57880859 92.95322266 30.28457031 92.68574219 31.01171875 92.41015625 C31.65584717 92.16402588 32.29997559 91.91789551 32.96362305 91.66430664 C37.14801231 90.29927569 41.06795095 89.87252006 45.45703125 89.8671875 C46.48763672 89.86589844 47.51824219 89.86460938 48.58007812 89.86328125 C49.64677734 89.86714844 50.71347656 89.87101562 51.8125 89.875 C53.39514648 89.86919922 53.39514648 89.86919922 55.00976562 89.86328125 C60.76874874 89.87045755 66.30530702 90.13446162 72 91 C72.14993408 90.42443359 72.29986816 89.84886719 72.4543457 89.25585938 C74.47938355 82.48517447 77.02089507 76.11217523 83 72 C88.80587083 70.2409075 94.99785575 70.49610788 101 70.6875 C101.80482819 70.71263672 102.60965637 70.73777344 103.43887329 70.76367188 C116.95172328 71.30114886 116.95172328 71.30114886 121 74 C119.73183148 76.64497512 118.3565308 79.06340318 116.6796875 81.46875 C116.23020752 82.11714844 115.78072754 82.76554687 115.31762695 83.43359375 C114.84156006 84.11550781 114.36549316 84.79742187 113.875 85.5 C112.88602879 86.92660528 111.89775437 88.35369383 110.91015625 89.78125 C110.42047363 90.48894531 109.93079102 91.19664063 109.42626953 91.92578125 C106.2268519 96.57868304 103.11363103 101.28940635 100 106 C101.42176343 109.23128051 103.16783467 111.35909765 105.625 113.875 C118.95436098 128.61000268 124.39363978 146.96499056 124.25 166.5 C124.26160156 168.12421875 124.26160156 168.12421875 124.2734375 169.78125 C124.27085937 170.8125 124.26828125 171.84375 124.265625 172.90625 C124.26336914 173.83759766 124.26111328 174.76894531 124.25878906 175.72851562 C124 178 124 178 122 180 C122.02618408 179.33170166 122.05236816 178.66340332 122.0793457 177.97485352 C122.55831943 163.8396718 122.50014709 151.17032739 117 138 C116.73767578 137.37029297 116.47535156 136.74058594 116.20507812 136.09179688 C111.45780312 125.08312798 104.65200872 116.21940829 96 108 C97.49763995 104.80663177 99.29937762 101.97995393 101.30078125 99.078125 C101.94853516 98.13453125 102.59628906 97.1909375 103.26367188 96.21875 C103.93978516 95.2390625 104.61589844 94.259375 105.3125 93.25 C109.68104086 86.9111667 113.97823206 80.56551672 118 74 C98.87520699 71.78182382 98.87520699 71.78182382 81.31005859 76.91210938 C77.0907605 81.90050247 74.70434768 87.73568159 73 94 C72.12057739 93.89824463 72.12057739 93.89824463 71.22338867 93.79443359 C51.22572293 91.6205614 33.16805795 91.2402738 15.953125 102.86328125 C14 104 14 104 11 104 C12.15138674 102.32349482 13.30287867 100.64706182 14.45483398 98.97094727 C15.45134702 97.52023563 16.44693829 96.06889043 17.44165039 94.61694336 C19.79999193 91.17877925 22.16715582 87.74980332 24.59375 84.359375 C33.81256066 71.43236589 38.16573182 60.25134212 35.5390625 44.1796875 C31.18634733 28.25387083 19.23595843 12.75685627 4.9375 4.5 C3.968125 4.005 2.99875 3.51 2 3 C3.32 4.32 4.64 5.64 6 7 C5.67 7.66 5.34 8.32 5 9 C2.5 6.75 2.5 6.75 0 4 C0 2.68 0 1.36 0 0 Z " fill="#F9E7E6" transform="translate(157,8)"/>
<path d="M0 0 C4.78553344 4.1018858 7.84522866 9.80725567 9 16 C9.11858309 18.06003654 9.17517378 20.12409006 9.1875 22.1875 C9.20167969 23.25355469 9.21585938 24.31960937 9.23046875 25.41796875 C8.53405242 36.24193108 3.88311022 45.05269373 -0.82666016 54.62084961 C-6.39053531 65.97478543 -10.69906519 77.20903237 -12.25 89.875 C-12.39953125 91.04804687 -12.5490625 92.22109375 -12.703125 93.4296875 C-12.80109375 94.27789062 -12.8990625 95.12609375 -13 96 C-18.24548259 94.02557678 -23.0930678 91.37403845 -28.0390625 88.75390625 C-36.82522062 84.59723635 -45.61322792 83.44108914 -55.25 83.5 C-56.34465576 83.50572021 -57.43931152 83.51144043 -58.56713867 83.51733398 C-67.54640298 83.71439609 -74.82411928 85.09109352 -83 89 C-84.55847656 89.74443359 -84.55847656 89.74443359 -86.1484375 90.50390625 C-97.67592792 96.65288893 -107.35518099 105.74309581 -114 117 C-114.53238281 117.90105469 -115.06476563 118.80210937 -115.61328125 119.73046875 C-125.97579617 138.78412522 -126.77774477 160.93844631 -121.0703125 181.6015625 C-120.08383173 184.93475459 -120.08383173 184.93475459 -118.8046875 187.7734375 C-118 190 -118 190 -119 193 C-127.39951948 174.49547485 -129.74877118 150.96879318 -123.37890625 131.4375 C-114.88118071 110.25336833 -102.79275295 94.96164875 -81.49609375 85.2890625 C-72.65228683 82.02821749 -64.62507598 80.46569262 -55.1875 80.5625 C-53.61101685 80.57494751 -53.61101685 80.57494751 -52.00268555 80.58764648 C-38.2871641 80.88477558 -27.68783319 85.08825811 -16 92 C-14.99105312 88.54138297 -14.02416527 85.09975331 -13.17578125 81.59765625 C-10.44837219 70.42885444 -6.07814078 60.37523357 -1.09765625 50.04296875 C5.16600443 37.0146855 9.57631468 25.62855992 4.93359375 11.3671875 C3.61125393 8.01430913 1.86192803 5.08181191 0 2 C0 1.34 0 0.68 0 0 Z " fill="#F9E4E3" transform="translate(163,17)"/>
<path d="M0 0 C9.11791584 0 15.8751463 6.84552386 22.25 12.75 C29.86505927 20.74111158 34.76308388 30.10774827 35.05859375 41.19921875 C34.59529103 49.52372247 30.56899506 56.99649822 26.80859375 64.27734375 C22.08452872 73.4262961 18.34680297 81.91433486 16 92 C15.66769557 93.33359014 15.33484827 94.66704632 15 96 C12.640625 95.81640625 12.640625 95.81640625 10 95 C6.67685361 89.43861678 5.26114452 82.4264259 5 76 C4.96003906 75.02289063 4.92007813 74.04578125 4.87890625 73.0390625 C4.72641211 65.48611727 5.50698889 58.39840329 7 51 C7.33 51 7.66 51 8 51 C7.9278125 51.89460938 7.855625 52.78921875 7.78125 53.7109375 C6.70904195 67.67942577 6.14908728 79.99975284 12 93 C12.21011719 92.23042969 12.42023438 91.46085937 12.63671875 90.66796875 C16.56168061 77.66744451 22.74049898 65.70242586 28.77246094 53.58105469 C32.22113731 46.3297805 32.31810105 36.81589115 30.19921875 29.07421875 C25.61338395 19.19339943 17.01799417 10.921454 8 5 C7.01 4.67 6.02 4.34 5 4 C5.99 4.99 6.98 5.98 8 7 C7.67 7.66 7.34 8.32 7 9 C5.82737096 7.88121617 4.66204862 6.75476949 3.5 5.625 C2.8503125 4.99851562 2.200625 4.37203125 1.53125 3.7265625 C0 2 0 2 0 0 Z " fill="#F8DFDE" transform="translate(128,1)"/>
<path d="M0 0 C4.78717542 -0.04943465 9.57420227 -0.08573582 14.36157227 -0.10986328 C15.99017932 -0.11992142 17.61876832 -0.13356958 19.24731445 -0.15087891 C21.58809872 -0.17513574 23.92864424 -0.18648483 26.26953125 -0.1953125 C27.36186821 -0.21079636 27.36186821 -0.21079636 28.47627258 -0.22659302 C32.21275069 -0.22742249 33.80675056 -0.12883296 37 2 C35.73183148 4.64497512 34.3565308 7.06340318 32.6796875 9.46875 C32.23020752 10.11714844 31.78072754 10.76554687 31.31762695 11.43359375 C30.84156006 12.11550781 30.36549316 12.79742187 29.875 13.5 C28.88602879 14.92660528 27.89775437 16.35369383 26.91015625 17.78125 C26.42047363 18.48894531 25.93079102 19.19664063 25.42626953 19.92578125 C22.2268519 24.57868304 19.11363103 29.28940635 16 34 C17.42176343 37.23128051 19.16783467 39.35909765 21.625 41.875 C34.95436098 56.61000268 40.39363978 74.96499056 40.25 94.5 C40.26160156 96.12421875 40.26160156 96.12421875 40.2734375 97.78125 C40.27085937 98.8125 40.26828125 99.84375 40.265625 100.90625 C40.26336914 101.83759766 40.26111328 102.76894531 40.25878906 103.72851562 C40 106 40 106 38 108 C38.03927612 106.99755249 38.03927612 106.99755249 38.0793457 105.97485352 C38.55831943 91.8396718 38.50014709 79.17032739 33 66 C32.73767578 65.37029297 32.47535156 64.74058594 32.20507812 64.09179688 C27.45780312 53.08312798 20.65200872 44.21940829 12 36 C13.49763995 32.80663177 15.29937762 29.97995393 17.30078125 27.078125 C17.94853516 26.13453125 18.59628906 25.1909375 19.26367188 24.21875 C19.93978516 23.2390625 20.61589844 22.259375 21.3125 21.25 C25.68104086 14.9111667 29.97823206 8.56551672 34 2 C33.43192627 2.00523682 32.86385254 2.01047363 32.27856445 2.01586914 C21.46623741 2.10221038 10.76663255 2.11861117 0 1 C0 0.67 0 0.34 0 0 Z " fill="#FBF0F0" transform="translate(241,80)"/>
<path d="M0 0 C0.74507813 0.00451172 1.49015625 0.00902344 2.2578125 0.01367188 C4.0885764 0.02540754 5.91929873 0.0433415 7.75 0.0625 C7.15165275 4.20548667 5.74335715 7.24444377 3.6875 10.875 C3.13964844 11.85082031 2.59179688 12.82664063 2.02734375 13.83203125 C1.39505859 14.93611328 1.39505859 14.93611328 0.75 16.0625 C1.41 16.3925 2.07 16.7225 2.75 17.0625 C1.76 17.0625 0.77 17.0625 -0.25 17.0625 C0.15316925 10.74618172 2.46232131 6.41256016 5.75 1.0625 C-8.49906964 1.51557058 -18.42831091 4.79950299 -28.875 14.5 C-34.41461298 20.47695085 -38.9603965 26.47789002 -43.125 33.5 C-43.62257812 34.32693359 -44.12015625 35.15386719 -44.6328125 36.00585938 C-45.84441861 38.02131954 -47.04997058 40.04013328 -48.25 42.0625 C-52.80203147 41.56112652 -52.80203147 41.56112652 -54.77636719 39.36352539 C-55.19563477 38.63641357 -55.61490234 37.90930176 -56.046875 37.16015625 C-56.52656738 36.35642578 -57.00625977 35.55269531 -57.50048828 34.72460938 C-57.99532715 33.86673828 -58.49016602 33.00886719 -59 32.125 C-63.03434998 25.41068002 -67.02699 19.49635641 -72.5078125 13.875 C-74.25 12.0625 -74.25 12.0625 -76.25 9.0625 C-68.46084574 12.57894735 -63.9023653 19.61882731 -59.5625 26.6875 C-56.65796776 31.34778735 -53.80151533 35.85391274 -50.25 40.0625 C-49.93361572 39.53930176 -49.61723145 39.01610352 -49.29125977 38.47705078 C-29.55477535 6.02911384 -29.55477535 6.02911384 -10.36328125 0.52099609 C-6.94152442 -0.22138599 -3.48373502 -0.04000756 0 0 Z " fill="#FAE7E6" transform="translate(209.25,122.9375)"/>
<path d="M0 0 C2.7083445 2.36012878 3.85019927 4.59993115 5.125 7.9375 C5.45757812 8.79214844 5.79015625 9.64679688 6.1328125 10.52734375 C10.47532927 22.90938481 8.78454733 38.63403054 5 51 C4.0533487 52.69753618 3.04938188 54.36397572 2 56 C1.113332 57.71917302 0.22717313 59.43863102 -0.6496582 61.1628418 C-6.4754557 72.50965789 -16.06437487 90.03218744 -28 96 C-26.65826955 91.9465617 -25.00684055 89.74494447 -21.875 86.875 C-6.06952207 71.52471984 5.44543145 49.40613157 6.3125 27.1875 C6.12097317 18.65087554 4.47285205 10.27934745 0 3 C0 2.01 0 1.02 0 0 Z " fill="#F9DFDE" transform="translate(247,146)"/>
<path d="M0 0 C9.11791584 0 15.8751463 6.84552386 22.25 12.75 C29.04879596 19.88453897 34.5818629 28.94728716 35 39 C34.71790736 40.67610042 34.39643724 42.34720649 34 44 C33.67 44 33.34 44 33 44 C32.91363281 43.24976563 32.82726562 42.49953125 32.73828125 41.7265625 C30.5677883 25.91581572 22.47897288 15.82359045 9.9453125 6.27734375 C7.92740238 4.83337081 7.92740238 4.83337081 5 4 C5.99 4.99 6.98 5.98 8 7 C7.67 7.66 7.34 8.32 7 9 C5.82737096 7.88121617 4.66204862 6.75476949 3.5 5.625 C2.8503125 4.99851562 2.200625 4.37203125 1.53125 3.7265625 C0 2 0 2 0 0 Z " fill="#F9E3E3" transform="translate(128,1)"/>
<path d="M0 0 C6.04285763 0.81631585 9.43545837 4.21071847 14 8 C14.88365234 8.66322266 14.88365234 8.66322266 15.78515625 9.33984375 C24.30885411 15.96938653 30.56810832 25.35285289 35.1875 35 C35.49107422 35.62253662 35.79464844 36.24507324 36.10742188 36.88647461 C37.79719701 40.64113459 38.29182183 43.0573299 37 47 C36.67 47 36.34 47 36 47 C35.85304687 46.40574219 35.70609375 45.81148437 35.5546875 45.19921875 C31.09155347 28.706143 19.87586842 13.12638176 4.9375 4.5 C3.968125 4.005 2.99875 3.51 2 3 C3.32 4.32 4.64 5.64 6 7 C5.67 7.66 5.34 8.32 5 9 C2.5 6.75 2.5 6.75 0 4 C0 2.68 0 1.36 0 0 Z " fill="#FAEDED" transform="translate(157,8)"/>
<path d="M0 0 C6.93 0.495 6.93 0.495 14 1 C14 1.33 14 1.66 14 2 C12.78376953 1.77763672 12.78376953 1.77763672 11.54296875 1.55078125 C7.3690117 1.25437685 4.90818447 1.39966584 1 3 C-3.84707564 8.46692056 -6.94107276 15.42019266 -10 22 C-10.59280762 21.93433838 -11.18561523 21.86867676 -11.79638672 21.80102539 C-18.23550938 21.11850597 -24.65684391 20.71457691 -31.125 20.4375 C-32.55972656 20.37272461 -32.55972656 20.37272461 -34.0234375 20.30664062 C-36.34886156 20.20199654 -38.67436461 20.09981681 -41 20 C-40.67 19.34 -40.34 18.68 -40 18 C-36.66668561 17.97062562 -33.33340517 17.95307666 -30 17.9375 C-29.06542969 17.92912109 -28.13085938 17.92074219 -27.16796875 17.91210938 C-26.24628906 17.90888672 -25.32460937 17.90566406 -24.375 17.90234375 C-23.11816406 17.89448853 -23.11816406 17.89448853 -21.8359375 17.88647461 C-18.20784283 18.03171084 -14.60296145 18.54962982 -11 19 C-5.555 9.595 -5.555 9.595 0 0 Z " fill="#F6D6D5" transform="translate(240,80)"/>
<path d="M0 0 C5.33057225 7.99585837 3.00035081 24.63954439 1.54882812 33.86865234 C-0.10238906 41.23485219 -2.98906474 48.10398698 -6 55 C-6.66 55 -7.32 55 -8 55 C-7.28970087 50.79407147 -5.98567027 46.95362738 -4.5625 42.9375 C0.2645728 28.62380433 0.24768168 14.99045725 0 0 Z " fill="#FAD9D7" transform="translate(278,160)"/>
<path d="M0 0 C0.33 0 0.66 0 1 0 C2.50576582 4.51729745 3.13905625 7.388017 2 12 C-3.56341313 12.57941786 -9.12775382 13.14858836 -14.69311523 13.70898438 C-16.5794583 13.90029901 -18.4655379 14.09423279 -20.35131836 14.29101562 C-31.61336647 15.46420799 -42.67075185 16.31515729 -54 16 C-54 15.67 -54 15.34 -54 15 C-47.77493051 14.42455412 -41.54935089 13.85510683 -35.32324219 13.29101562 C-33.20883674 13.09862087 -31.09457516 12.9046377 -28.98046875 12.70898438 C-25.92745568 12.42672468 -22.8739569 12.1503355 -19.8203125 11.875 C-18.88760529 11.78750488 -17.95489807 11.70000977 -16.993927 11.60986328 C-10.97925571 11.07477724 -5.03742821 10.89722659 1 11 C0.505 9.515 0.505 9.515 0 8 C-0.12781786 5.32605036 -0.04391871 2.67904143 0 0 Z " fill="#F7D4D3" transform="translate(277,255)"/>
<path d="M0 0 C0.33 0 0.66 0 1 0 C2.79683268 9.03753466 1.05398112 14.86945291 -3 23 C-3.55494141 24.2375 -3.55494141 24.2375 -4.12109375 25.5 C-5.125 27.6875 -5.125 27.6875 -7 31 C-7.99 31.33 -8.98 31.66 -10 32 C-8.78873745 28.02535456 -7.26124891 24.40091817 -5.38500977 20.69555664 C-1.9104981 13.79040114 0.11457116 7.87267521 0 0 Z " fill="#FADAD8" transform="translate(160,38)"/>
<path d="M0 0 C4.28359673 1.8855148 6.15103592 4.35965701 9 8 C8.67 8.66 8.34 9.32 8 10 C6.02 7.69 4.04 5.38 2 3 C-1.98103298 7.77723958 -5.46719209 12.88933687 -9 18 C-10.32 17.67 -11.64 17.34 -13 17 C-13 16.01 -13 15.02 -13 14 C-11.515 14.99 -11.515 14.99 -10 16 C-9.75507813 15.29488281 -9.51015625 14.58976563 -9.2578125 13.86328125 C-7.82532472 10.60236963 -6.00478131 8.03865885 -3.875 5.1875 C-3.15054688 4.21167969 -2.42609375 3.23585937 -1.6796875 2.23046875 C-0.84824219 1.12638672 -0.84824219 1.12638672 0 0 Z " fill="#FAEAE9" transform="translate(238,136)"/>
<path d="M0 0 C0.99 0.33 1.98 0.66 3 1 C2.52111328 1.40742432 2.04222656 1.81484863 1.54882812 2.23461914 C-3.69838088 6.75481287 -8.63355982 11.5124823 -13.5 16.4375 C-14.22703125 17.16904297 -14.9540625 17.90058594 -15.703125 18.65429688 C-17.47109499 20.43389824 -19.23666378 22.21580918 -21 24 C-21.99 23.67 -22.98 23.34 -24 23 C-18.39844544 17.30577266 -12.80544505 11.6947216 -6.7265625 6.50390625 C-4.36285001 4.44501641 -2.18150266 2.24967462 0 0 Z " fill="#F9E7E7" transform="translate(115,288)"/>
<path d="M0 0 C0 0.33 0 0.66 0 1 C-1.0725 1.268125 -2.145 1.53625 -3.25 1.8125 C-6.63257802 2.88364971 -8.31867178 3.83476814 -11 6 C-10.14535156 6.04898437 -9.29070312 6.09796875 -8.41015625 6.1484375 C-6.75306641 6.26058594 -6.75306641 6.26058594 -5.0625 6.375 C-3.96035156 6.44460938 -2.85820312 6.51421875 -1.72265625 6.5859375 C-0.37494141 6.79089844 -0.37494141 6.79089844 1 7 C1.33 7.66 1.66 8.32 2 9 C-4.27 9 -10.54 9 -17 9 C-7.41818182 -0.58181818 -7.41818182 -0.58181818 0 0 Z " fill="#FCF2F2" transform="translate(229,271)"/>
<path d="M0 0 C6.93 0.495 6.93 0.495 14 1 C14 1.33 14 1.66 14 2 C13.18917969 1.85175781 12.37835938 1.70351562 11.54296875 1.55078125 C7.37026094 1.25446556 4.90558562 1.39727588 1 3 C-3.3707325 8.02518746 -6.17663883 14.27289878 -8.96948242 20.27172852 C-9.30955322 20.84205811 -9.64962402 21.4123877 -10 22 C-10.66 22 -11.32 22 -12 22 C-10.61206665 19.17954105 -9.14705021 16.41778242 -7.6171875 13.671875 C-7.17246094 12.87265625 -6.72773438 12.0734375 -6.26953125 11.25 C-5.57923828 10.0125 -5.57923828 10.0125 -4.875 8.75 C-4.40707031 7.90953125 -3.93914062 7.0690625 -3.45703125 6.203125 C-2.30545545 4.13498887 -1.15283019 2.06743716 0 0 Z " fill="#F9DAD8" transform="translate(240,80)"/>
<path d="M0 0 C0.33 0.66 0.66 1.32 1 2 C0.07058005 3.78999398 -0.8620314 5.57838661 -1.80859375 7.359375 C-4.20028055 12.66029395 -5.51868711 18.3899214 -7 24 C-7.66 24 -8.32 24 -9 24 C-8.7095387 15.5766223 -5.84766597 8.42997566 -2 1 C-1.34 0.67 -0.68 0.34 0 0 Z " fill="#FAE9E8" transform="translate(151,69)"/>
<path d="M0 0 C5.24211784 4.11880687 7.41911623 10.46669044 8.47265625 16.875 C8.71237958 19.25197497 8.89844497 21.61345682 9 24 C8.34 24.33 7.68 24.66 7 25 C6.91363281 24.24976562 6.82726562 23.49953125 6.73828125 22.7265625 C5.8283155 16.09800467 4.33353621 10.88475014 1.0234375 5.05859375 C0 3 0 3 0 0 Z " fill="#FBF3F3" transform="translate(154,20)"/>
<path d="M0 0 C0.99 0.33 1.98 0.66 3 1 C2.50372318 5.79132712 0.19771508 9.02090287 -2.5625 12.8125 C-2.98724609 13.40998047 -3.41199219 14.00746094 -3.84960938 14.62304688 C-4.89223259 16.08740533 -5.94510452 17.54445735 -7 19 C-8.32 18.67 -9.64 18.34 -11 18 C-10.01 18 -9.02 18 -8 18 C-7.73445313 17.26910156 -7.46890625 16.53820312 -7.1953125 15.78515625 C-5.66126263 12.21071979 -3.51523979 9.32127598 -1.2421875 6.18359375 C0.32964233 3.83923316 0.32964233 3.83923316 0 0 Z " fill="#FBF0EF" transform="translate(278,287)"/>
<path d="M0 0 C0.98248524 4.0527516 1.08159574 7.83861737 1 12 C0.67 12 0.34 12 0 12 C-1.19287411 8.12315913 -2 5.08378077 -2 1 C-2.99 1.33 -3.98 1.66 -5 2 C-6.56118428 2.06740865 -8.1250252 2.08514456 -9.6875 2.0625 C-10.89986328 2.04896484 -10.89986328 2.04896484 -12.13671875 2.03515625 C-13.05904297 2.01775391 -13.05904297 2.01775391 -14 2 C-14 1.67 -14 1.34 -14 1 C-12.41913952 0.63495397 -10.83516093 0.28339494 -9.25 -0.0625 C-8.36828125 -0.25972656 -7.4865625 -0.45695313 -6.578125 -0.66015625 C-4.01320972 -0.99825872 -2.42908361 -0.81158635 0 0 Z " fill="#FAF3F2" transform="translate(278,248)"/>
<path d="M0 0 C0.99 0.33 1.98 0.66 3 1 C2.40832031 1.44730469 1.81664063 1.89460937 1.20703125 2.35546875 C-3.14882567 5.68809011 -7.24356546 9.00121485 -11 13 C-10.42400084 9.46616733 -9.1890605 7.83087229 -6.625 5.375 C-6.01914063 4.78460938 -5.41328125 4.19421875 -4.7890625 3.5859375 C-3 2 -3 2 0 0 Z " fill="#FAEFEE" transform="translate(84,130)"/>
<path d="M0 0 C0.33 0.66 0.66 1.32 1 2 C-1.31 5.3 -3.62 8.6 -6 12 C-7 9 -7 9 -6.07421875 6.9921875 C-5.61660156 6.29351562 -5.15898437 5.59484375 -4.6875 4.875 C-4.23761719 4.17117187 -3.78773438 3.46734375 -3.32421875 2.7421875 C-2 1 -2 1 0 0 Z " fill="#FBEEEE" transform="translate(191,80)"/>
<path d="M0 0 C6.70459519 5.0940919 6.70459519 5.0940919 7.9375 8.875 C7.958125 9.57625 7.97875 10.2775 8 11 C6.33333333 9.33333333 4.66666667 7.66666667 3 6 C2.401875 5.46375 1.80375 4.9275 1.1875 4.375 C0 3 0 3 0 0 Z " fill="#FCEAEA" transform="translate(146,11)"/>
<path d="M0 0 C1 3 1 3 0.00390625 5.26171875 C-0.47175781 6.06222656 -0.94742188 6.86273438 -1.4375 7.6875 C-2.14712891 8.89986328 -2.14712891 8.89986328 -2.87109375 10.13671875 C-3.24363281 10.75160156 -3.61617187 11.36648437 -4 12 C-4.66 12 -5.32 12 -6 12 C-4 8 -2 4 0 0 Z " fill="#FBEDED" transform="translate(234,90)"/>
<path d="M0 0 C2.31 0 4.62 0 7 0 C7 0.66 7 1.32 7 2 C7.66 2.33 8.32 2.66 9 3 C5.7 2.67 2.4 2.34 -1 2 C-0.67 1.34 -0.34 0.68 0 0 Z " fill="#F8D2D0" transform="translate(244,280)"/>
<path d="M0 0 C0.625 1.8125 0.625 1.8125 1 4 C0.01 5.485 0.01 5.485 -1 7 C-1.66 7 -2.32 7 -3 7 C-3.33 7.99 -3.66 8.98 -4 10 C-4 5.28093812 -2.71245796 3.72962969 0 0 Z " fill="#FAE6E5" transform="translate(258,107)"/>
<path d="M0 0 C-2.64 1.65 -5.28 3.3 -8 5 C-8 4.01 -8 3.02 -8 2 C-4.90310319 -1.09689681 -4.48560889 -1.12140222 0 0 Z " fill="#FAE4E3" transform="translate(73,110)"/>
<path d="M0 0 C3.37503669 1.1858237 5.64722731 2.27573689 8 5 C7.01 5.66 6.02 6.32 5 7 C3.35 4.69 1.7 2.38 0 0 Z " fill="#F15048" transform="translate(158,10)"/>
</svg>
